<svg width="358" height="110.00099946067272" viewBox="-18 -10 358 110.00099946067272" class="css-1j8o68f" xmlns="http://www.w3.org/2000/svg"><defs id="SvgjsDefs5532"></defs><g id="SvgjsG5533" featurekey="PG4fjM-0" transform="matrix(1.0000099946067271,0,0,1.0000099946067271,-18.06000060206061,-10.571006759787409)" fill="#fa4305"><path xmlns="http://www.w3.org/2000/svg" d="M82.419,63.63H59.091l12.248-25.31l2.022-4.183c0.243-0.652,0.462-1.316,0.651-1.992c0.595-2.13,0.936-4.366,0.936-6.687  c0-13.744-11.145-24.887-24.89-24.887c-13.745,0-24.889,11.143-24.889,24.887c0,2.32,0.342,4.556,0.937,6.687  c0.188,0.676,0.407,1.34,0.65,1.992l2.023,4.182L41.024,63.63H17.698L0.06,100.571h99.999L82.419,63.63z M50.059,16.554  c4.917,0,8.907,3.988,8.907,8.904c0,4.92-3.989,8.905-8.907,8.905c-4.918,0-8.905-3.987-8.905-8.905  C41.154,20.542,45.141,16.554,50.059,16.554z M35.931,72.762c4.186,0.569,6.644,3.49,9.655,7.117  c4.785,5.761,10.74,12.933,26.629,12.933c9.717,0,15.667-1.765,17.726-5.24l4.523,9.471H35.931V72.762z M84,75.129  c-6.188,0.015-13.086-0.042-16.472-3.42c-1.164-1.164-1.813-2.676-2.016-4.553h14.685L84,75.129z M50.059,82.298l7.327-15.141h6.368  c0.226,2.355,1.047,4.32,2.529,5.802c3.732,3.725,10.585,3.935,16.893,3.935c0.411,0,0.818,0,1.223,0l0.445-0.002l4.061,8.504  c-0.057,0.311-0.14,0.62-0.28,0.921c-0.993,2.16-4.646,4.732-16.407,4.732c-15.06,0-20.486-6.532-25.271-12.297  c-3.065-3.688-5.999-7.156-11.012-7.749v-3.845h6.801L50.059,82.298z M19.922,67.157h14.246v3.729  c-7.7,0.061-11.178,2.683-13.973,4.802c-1.84,1.393-3.354,2.528-5.692,2.822L19.922,67.157z M13.63,80.334  c3.448-0.1,5.488-1.621,7.629-3.24c2.718-2.06,5.812-4.381,12.909-4.438v24.387H5.653L13.63,80.334z"></path></g><g id="SvgjsG5534" featurekey="jxYttZ-0" transform="matrix(2.0272761408535884,0,0,2.0272761408535884,118.54036160392488,19.633984461259764)" fill="#fa4305"><path d="M8.5 10.12 l2.06 0 l0 10.04 c0 2.94 -2.3 5.32 -5.14 5.32 c-1.48 0 -2.82 -0.66 -3.76 -1.7 l1.42 -1.28 c0.56 0.8 1.4 1.3 2.34 1.3 c1.7 0 3.08 -1.64 3.08 -3.64 l0 -0.92 c-0.66 0.54 -1.88 0.94 -2.84 0.94 c-2.84 0 -4.94 -2.18 -4.94 -5.12 s2.1 -5.14 4.94 -5.14 c0.96 0 2.06 0.36 2.84 0.96 l0 -0.76 z M5.86 18.5 c1.12 0 2.1 -0.52 2.64 -1.58 c0.28 -0.54 0.44 -1.18 0.44 -1.86 s-0.16 -1.32 -0.44 -1.88 c-0.54 -1.06 -1.52 -1.56 -2.64 -1.56 c-1.7 0 -3.08 1.42 -3.08 3.44 c0 2 1.38 3.44 3.08 3.44 z M22.68 15.08 l0 0.74 l-7.78 0 c0 1.82 1.74 2.7 3.02 2.7 c0.94 0 1.98 -0.5 2.54 -1.3 l1.42 1.28 c-0.66 0.9 -1.74 1.7 -3.96 1.7 c-3.2 0 -5.16 -2.18 -5.16 -5.12 s1.9 -5.14 4.96 -5.14 s4.46 1.7 4.88 4.18 c0.06 0.32 0.08 0.64 0.08 0.96 z M14.94 14.120000000000001 l5.58 0 c0 -1.6 -1.28 -2.48 -2.8 -2.48 s-2.78 1.02 -2.78 2.48 z M29.42 11.64 c-1.7 0 -3.08 1.42 -3.08 3.44 c0 2 1.38 3.44 3.08 3.44 s3.08 -1.44 3.08 -3.44 c0 -2.02 -1.38 -3.44 -3.08 -3.44 z M29.42 9.94 c2.84 0 5.14 2.2 5.14 5.14 s-2.3 5.12 -5.14 5.12 s-5.14 -2.18 -5.14 -5.12 s2.3 -5.14 5.14 -5.14 z M39.04 4.619999999999999 l0 15.38 l-2.08 0 l0 -15.38 l2.08 0 z M46.78 11.64 c-1.7 0 -3.08 1.42 -3.08 3.44 c0 2 1.38 3.44 3.08 3.44 s3.08 -1.44 3.08 -3.44 c0 -2.02 -1.38 -3.44 -3.08 -3.44 z M46.78 9.94 c2.84 0 5.14 2.2 5.14 5.14 s-2.3 5.12 -5.14 5.12 s-5.14 -2.18 -5.14 -5.12 s2.3 -5.14 5.14 -5.14 z M61.02 17.42 l1.42 1.28 c-0.94 1.04 -2.28 1.5 -3.78 1.5 c-2.84 0 -5.14 -2.18 -5.14 -5.12 s2.3 -5.14 5.14 -5.14 c1.5 0 2.84 0.46 3.78 1.5 l-1.42 1.28 c-0.58 -0.78 -1.42 -1.08 -2.36 -1.08 c-1.7 0 -3.08 1.42 -3.08 3.44 c0 2 1.38 3.44 3.08 3.44 c0.94 0 1.78 -0.3 2.36 -1.1 z M68.66 9.92 c2.84 0 3.98 1.72 3.98 3.18 l0 6.9 l-2.06 0 l0 -1.08 c-0.72 0.98 -2 1.26 -2.8 1.26 c-2.26 0 -3.74 -1.32 -3.74 -3.08 c0 -2.46 1.84 -3.34 3.74 -3.34 l2.8 0 l0 -0.66 c0 -0.62 -0.24 -1.48 -1.92 -1.48 c-0.94 0 -1.8 0.5 -2.36 1.28 l-1.42 -1.28 c0.94 -1.04 2.28 -1.7 3.78 -1.7 z M70.58 16.92 l0 -1.48 l-2.52 0 c-1.22 0 -2.08 0.62 -1.94 1.74 c0.12 0.94 0.88 1.32 1.94 1.32 c1.9 0 2.52 -0.9 2.52 -1.58 z M78.92 18.36 c0.64 0.26 1.14 0.08 1.44 -0.06 l0 1.6 c-0.26 0.16 -0.64 0.3 -1.18 0.3 c-1.18 0 -2.22 -0.38 -2.86 -1.42 c-0.6 -1 -0.6 -1.54 -0.6 -3.1 l0 -3.88 l-1.2 0 l0 -1.68 l1.2 0 l0 -3.12 l2.06 0 l0 3.12 l2.58 0 l0 1.68 l-2.58 0 l0 3.88 c0 1.64 0.16 2.24 1.14 2.68 z M85.12 10.12 l0 9.88 l-2.06 0 l0 -9.88 l2.06 0 z M85.22 6.5 c0 0.64 -0.5 1.14 -1.14 1.14 c-0.62 0 -1.12 -0.5 -1.12 -1.14 c0 -0.62 0.5 -1.12 1.12 -1.12 c0.64 0 1.14 0.5 1.14 1.12 z M92.76 11.64 c-1.7 0 -3.08 1.42 -3.08 3.44 c0 2 1.38 3.44 3.08 3.44 s3.08 -1.44 3.08 -3.44 c0 -2.02 -1.38 -3.44 -3.08 -3.44 z M92.76 9.94 c2.84 0 5.14 2.2 5.14 5.14 s-2.3 5.12 -5.14 5.12 s-5.14 -2.18 -5.14 -5.12 s2.3 -5.14 5.14 -5.14 z M109.24000000000001 14.3 l0 5.7 l-2.06 0 l0 -5.5 c0 -2 -0.62 -2.88 -2.32 -2.88 c-1.92 0 -2.7 1.34 -2.7 3.08 l0 5.3 l-2.06 0 l0 -9.88 l2.06 0 l0 1.6 c0.28 -0.88 1.52 -1.68 2.7 -1.76 c2.68 -0.2 4.38 1.1 4.38 4.34 z"></path></g></svg>